. 
  
http://www.torrentday.com/        :     The Hottest Private Tracker On The Net!!!


               www . TorrentDay . Com 
(((((((((((((= Enjoy No RAR releases =))))))))))))))))))))


...................................NFO:....................................

.[img]http://img832.imageshack.us/img832/8317/youagainbluraycoverart.jpg[/img]

You Again 2010 BDRip XVID AC3 HQ Hive-CM8


[b]Thx Hive

CM8 Doing It Right The First Time :D

Why download a touched up rip of a rip BRrip
Get the real deal BDRip
Enjoy

Source China Bluray

Video: 720x304 @bitrate 1700 2pass
Audio: DTS to AC3 5.1 @448
Sample: yes included[/b]

[url]http://www.imdb.com/title/tt1414382/[/url]

General
Complete name                    : You.Again.2010.BDRip.XVID.AC3.HQ.Hive-CM8.avi
Format                           : AVI
Format/Info                      : Audio Video Interleave
File size                        : 1.59 GiB
Duration                         : 1h 45mn
Overall bit rate                 : 2 158 Kbps
Writing application              : Nandub v1.0rc2
Writing library                  : Nandub build 1853/release

Video
ID                               : 0
Format                           : MPEG-4 Visual
Format profile                   : Advanced Simple@L5
Format settings, BVOP            : Yes
Format settings, QPel            : Yes
Format settings, GMC             : No warppoints
Format settings, Matrix          : Default (H.263)
Muxing mode                      : Packed bitstream
Codec ID                         : XVID
Codec ID/Hint                    : XviD
Duration                         : 1h 45mn
Bit rate                         : 1 701 Kbps
Width                            : 720 pixels
Height                           : 304 pixels
Display aspect ratio             : 2.40:1
Frame rate                       : 23.976 fps
Color space                      : YUV
Chroma subsampling               : 4:2:0
Bit depth                        : 8 bits
Scan type                        : Progressive
Bits/(Pixel*Frame)               : 0.324
Stream size                      : 1.25 GiB (79%)
Writing library                  : XviD 1.2.1 (UTC 2008-12-04)

Audio
ID                               : 1
Format                           : AC-3
Format/Info                      : Audio Coding 3
Mode extension                   : CM (complete main)
Codec ID                         : 2000
Duration                         : 1h 45mn
Bit rate mode                    : Constant
Bit rate                         : 448 Kbps
Channel(s)                       : 6 channels
Channel positions                : Front: L C R, Side: L R, LFE
Sampling rate                    : 48.0 KHz
Bit depth                        : 16 bits
Stream size                      : 338 MiB (21%)
Alignment                        : Split accross interleaves
Interleave, duration             : 42 ms (1.00 video frame)
Interleave, preload duration     : 500 ms

Kristen Bell  ... Marni
Jamie Lee Curtis  ... Gail
Sigourney Weaver  ... Aunt Ramona
Odette Yustman  ... Joanna
Betty White  ... Grandma Bunny
Victor Garber  ... Mark
James Wolk  ... Will (as Jimmy Wolk)
Kristin Chenoweth ... Georgia
Sean Wing  ... Charlie
Kyle Bornheimer   ... Tim 


When a young woman realizes her brother is
about to marry the girl who bullied her in
high school, she sets out to expose the
fiance's true colors.   
 
pics:
[img]http://img571.imageshack.us/img571/184/58231001.png[/img]
[img]http://img337.imageshack.us/img337/1545/yoyoe.png[/img]
[img]http://img602.imageshack.us/img602/3365/yoyoyot.png[/img]
[img]http://img193.imageshack.us/img193/544/yoyoyoyoq.png[/img]
[img]http://img524.imageshack.us/img524/1904/yoyoyoyoyo.png[/img]
[img]http://img141.imageshack.us/img141/7792/yoyoyoyoyoyo.png[/img]
[img]http://img146.imageshack.us/img146/6001/yoyoyoyoyoyoyo.png[/img]
[img]http://img202.imageshack.us/img202/7920/yoyoyoyoyoyoyoyo.png[/img]
[img]http://img695.imageshack.us/img695/6789/yoyoyoyoyoyoyoyoyo.png[/img]



Greetz

iNK,LUSi,,MAGNET,CLASSiFiED,THC,LEGi0N,IMAGiNE,ViSiON,WBZ,FLAWL3SS,NOVA
Rapeseed,D2U,SAFC,goldadvance,MEMORY100,KaN1vE,Unevano,Pinnz,Wayne,Mr Hive
and all P2P groups 
Great Work Guys :D